#tb 0: 1/24
0,          0,          0,        1,   614880, 12ce23b288485be3ddbc1db28c21517f
0,          2,          2,        1,   614880, ce352e1079535ea058c0e9ad50f7cdb8
0,          3,          3,        1,   614880, 9f6bf2739a027dfd12c81586cf75d3a3
0,          4,          4,        1,   614880, 7593a85ab7790eb39d65fc53f769ed8b
0,          5,          5,        1,   614880, 52f47f1e0348f3297d9f233fb5405e8b
0,          6,          6,        1,   614880, cd51d2c200bfd66e8e1b0fd6b404570f
0,          7,          7,        1,   614880, cf535cf0a53e903cd98a9a944b72da6d
0,          8,          8,        1,   614880, 1b270fd2b56daa7892102c2885d23201
0,          9,          9,        1,   614880, ff373c0c8a4a319c84e72b1c3d76b399
